<svg width="33" height="32" viewBox="0 0 33 32" fill="none" xmlns="http://www.w3.org/2000/svg">
<g clip-path="url(#clip0_1_275)">
<path d="M16.7776 32C7.94079 32 0.799927 24.8591 0.799927 16.0223C0.799927 7.1855 7.98542 0 16.8222 0C25.6144 0 32.7999 7.1855 32.7999 16.0223C32.7999 24.8591 25.6144 32 16.7776 32Z" fill="url(#paint0_radial_1_275)"/>
<path d="M16.6165 9.03805C18.854 9.03805 19.1073 9.03805 19.9516 9.08077C20.7538 9.1235 21.2181 9.25167 21.5136 9.37984C21.8936 9.55073 22.1891 9.72163 22.4846 10.0207C22.7801 10.3198 22.949 10.5761 23.1179 11.0033C23.2445 11.3024 23.3712 11.7296 23.4134 12.5841C23.4556 13.4813 23.4556 13.7376 23.4556 15.9593C23.4556 18.2236 23.4556 18.48 23.4134 19.3344C23.3712 20.1462 23.2445 20.6162 23.1179 20.9152C22.949 21.2997 22.7801 21.5988 22.4846 21.8979C22.1891 22.1969 21.9358 22.3678 21.5136 22.5387C21.2181 22.6669 20.796 22.7951 19.9516 22.8378C19.0651 22.8805 18.8118 22.8805 16.6165 22.8805C14.3791 22.8805 14.1258 22.8805 13.2815 22.8378C12.4793 22.7951 12.015 22.6669 11.7195 22.5387C11.3395 22.3678 11.044 22.1969 10.7485 21.8979C10.453 21.5988 10.2841 21.3425 10.1152 20.9152C9.98858 20.6162 9.86193 20.1889 9.81972 19.3344C9.7775 18.4373 9.7775 18.1809 9.7775 15.9593C9.7775 13.6949 9.7775 13.4386 9.81972 12.5841C9.86193 11.7724 9.98858 11.3024 10.1152 11.0033C10.2841 10.6188 10.453 10.3198 10.7485 10.0207C11.044 9.72163 11.2973 9.55073 11.7195 9.37984C12.015 9.25167 12.4371 9.1235 13.2815 9.08077C14.168 9.03805 14.4213 9.03805 16.6165 9.03805ZM16.6165 7.5C14.3791 7.5 14.0836 7.5 13.197 7.54272C12.3105 7.58545 11.7195 7.71362 11.1706 7.92724C10.6218 8.14085 10.1574 8.43992 9.69307 8.90988C9.22869 9.37984 8.93317 9.8498 8.72209 10.4052C8.51101 10.9606 8.38436 11.5587 8.34214 12.4559C8.29993 13.3531 8.29993 13.6522 8.29993 15.9166C8.29993 18.1809 8.29993 18.48 8.34214 19.3772C8.38436 20.2744 8.51101 20.8725 8.72209 21.4279C8.93317 21.9833 9.22869 22.4533 9.69307 22.9232C10.1574 23.3932 10.6218 23.6923 11.1706 23.9059C11.7195 24.1195 12.3105 24.2477 13.197 24.2904C14.0836 24.3331 14.3791 24.3331 16.6165 24.3331C18.854 24.3331 19.1495 24.3331 20.0361 24.2904C20.9226 24.2477 21.5136 24.1195 22.0625 23.9059C22.6113 23.6923 23.0756 23.3932 23.54 22.9232C24.0044 22.4533 24.2999 21.9833 24.511 21.4279C24.7221 20.8725 24.8487 20.2744 24.891 19.3772C24.9332 18.48 24.9332 18.1809 24.9332 15.9166C24.9332 13.6522 24.9332 13.3531 24.891 12.4559C24.8487 11.5587 24.7221 10.9606 24.511 10.4052C24.2999 9.8498 24.0044 9.37984 23.54 8.90988C23.0756 8.43992 22.6113 8.14085 22.0625 7.92724C21.5136 7.71362 20.9226 7.58545 20.0361 7.54272C19.1917 7.5 18.8962 7.5 16.6165 7.5Z" fill="white"/>
<path d="M16.6165 11.6014C14.2524 11.6014 12.3527 13.5239 12.3527 15.9165C12.3527 18.309 14.2524 20.2316 16.6165 20.2316C18.9806 20.2316 20.8804 18.309 20.8804 15.9165C20.8804 13.5239 18.9806 11.6014 16.6165 11.6014ZM16.6165 18.6935C15.0967 18.6935 13.8302 17.4545 13.8302 15.8737C13.8302 14.3357 15.0545 13.054 16.6165 13.054C18.1363 13.054 19.4028 14.293 19.4028 15.8737C19.4028 17.4545 18.1785 18.6935 16.6165 18.6935Z" fill="white"/>
<path d="M22.0625 11.4306C22.0625 11.986 21.5981 12.456 21.0493 12.456C20.5005 12.456 20.0361 11.986 20.0361 11.4306C20.0361 10.8752 20.5005 10.4053 21.0493 10.4053C21.5981 10.4053 22.0625 10.8752 22.0625 11.4306Z" fill="white"/>
</g>
<defs>
<radialGradient id="paint0_radial_1_275" cx="0" cy="0" r="1" gradientUnits="userSpaceOnUse" gradientTransform="translate(-0.0109192 32.1246) scale(59.1868)">
<stop stop-color="#F4EC55"/>
<stop offset="0.2412" stop-color="#E48242"/>
<stop offset="0.3463" stop-color="#D66863"/>
<stop offset="0.4422" stop-color="#CD4F74"/>
<stop offset="0.4888" stop-color="#C94379"/>
<stop offset="1" stop-color="#3F56A6"/>
</radialGradient>
<clipPath id="clip0_1_275">
<rect width="32" height="32" fill="white" transform="translate(0.799927)"/>
</clipPath>
</defs>
</svg>
