<svg width="33" height="32" viewBox="0 0 33 32" fill="none" xmlns="http://www.w3.org/2000/svg">
<path d="M16.3999 32C25.2364 32 32.3999 24.8365 32.3999 16C32.3999 7.16347 25.2364 0 16.3999 0C7.56337 0 0.399902 7.16347 0.399902 16C0.399902 24.8365 7.56337 32 16.3999 32Z" fill="#F76754"/>
<path d="M8.93323 22.9334H11.5999V9.06671H8.93323V22.9334Z" fill="#002C49"/>
<path d="M18.5415 9.06671C21.4777 9.06671 23.8665 11.4627 23.8665 14.408C23.8665 17.3444 21.4777 19.7334 18.5415 19.7334C15.5961 19.7334 13.1998 17.3444 13.1998 14.408C13.1998 11.4627 15.5961 9.06671 18.5415 9.06671Z" fill="white"/>
</svg>
