<svg width="32" height="32" viewBox="0 0 32 32" fill="none" xmlns="http://www.w3.org/2000/svg">
<path d="M0 16C0 7.16347 7.16347 0 16 0C24.8365 0 32 7.16347 32 16C32 24.8365 24.8365 32 16 32C7.16347 32 0 24.8365 0 16Z" fill="#FF0000"/>
<path d="M24.1767 12.0071C23.9804 11.2695 23.4021 10.6887 22.6677 10.4915C21.3369 10.1333 16 10.1333 16 10.1333C16 10.1333 10.6631 10.1333 9.33221 10.4915C8.59781 10.6887 8.01948 11.2695 7.82321 12.0071C7.46668 13.344 7.46667 16.1333 7.46667 16.1333C7.46667 16.1333 7.46668 18.9225 7.82321 20.2595C8.01948 20.9971 8.59781 21.5779 9.33221 21.7751C10.6631 22.1333 16 22.1333 16 22.1333C16 22.1333 21.3369 22.1333 22.6677 21.7751C23.4021 21.5779 23.9804 20.9971 24.1767 20.2595C24.5333 18.9225 24.5333 16.1333 24.5333 16.1333C24.5333 16.1333 24.5333 13.344 24.1767 12.0071Z" fill="white"/>
<path d="M14.4 19.2V13.8667L18.6667 16.5334L14.4 19.2Z" fill="#FF0000"/>
</svg>
